<?xml version="1.0" encoding="UTF-8"?> <svg xmlns="http://www.w3.org/2000/svg" xmlns:xlink="http://www.w3.org/1999/xlink" viewBox="0 0 283.39 63"><defs><style>.cls-1{fill:#8b0021;}.cls-2{fill:#58595b;}.cls-3{fill:url(#radial-gradient);}</style><radialGradient id="radial-gradient" cx="39.29" cy="32.4" r="27.7" gradientUnits="userSpaceOnUse"><stop offset="0" stop-color="#8b0021"></stop><stop offset="0.21" stop-color="#8f0121"></stop><stop offset="0.41" stop-color="#9a0421"></stop><stop offset="0.61" stop-color="#ad0a22"></stop><stop offset="0.8" stop-color="#c81223"></stop><stop offset="0.99" stop-color="#eb1c24"></stop><stop offset="1" stop-color="#ec1c24"></stop></radialGradient></defs><g id="Logos"><rect x="67" y="16.37" width="214.28" height="0.83"></rect><polygon class="cls-1" points="69.67 3.37 66.91 3.37 66.91 1.53 74.42 1.53 74.42 3.37 71.66 3.37 71.66 10.6 69.67 10.6 69.67 3.37"></polygon><polygon class="cls-1" points="76.4 1.53 78.39 1.53 78.39 5.12 82.07 5.12 82.07 1.53 84.06 1.53 84.06 10.6 82.07 10.6 82.07 6.96 78.39 6.96 78.39 10.6 76.4 10.6 76.4 1.53"></polygon><polygon class="cls-1" points="86.69 1.53 93.53 1.53 93.53 3.31 88.67 3.31 88.67 5.14 92.94 5.14 92.94 6.92 88.67 6.92 88.67 8.82 93.59 8.82 93.59 10.6 86.69 10.6 86.69 1.53"></polygon><path class="cls-1" d="M100,6.71V1.53h2V6.66c0,1.47.74,2.24,1.95,2.24s2-.74,2-2.18V1.53h2V6.65c0,2.74-1.54,4.09-4,4.09S100,9.38,100,6.71"></path><polygon class="cls-1" points="110.4 1.53 112.24 1.53 116.48 7.11 116.48 1.53 118.45 1.53 118.45 10.6 116.75 10.6 112.36 4.83 112.36 10.6 110.4 10.6 110.4 1.53"></polygon><rect class="cls-1" x="121.17" y="1.53" width="1.99" height="9.06"></rect><polygon class="cls-1" points="125.11 1.53 127.31 1.53 129.68 7.91 132.05 1.53 134.19 1.53 130.53 10.66 128.77 10.66 125.11 1.53"></polygon><polygon class="cls-1" points="136.05 1.53 142.88 1.53 142.88 3.31 138.03 3.31 138.03 5.14 142.3 5.14 142.3 6.92 138.03 6.92 138.03 8.82 142.95 8.82 142.95 10.6 136.05 10.6 136.05 1.53"></polygon><path class="cls-1" d="M145.17,1.53h4.15a3.64,3.64,0,0,1,2.64.92,2.88,2.88,0,0,1,.78,2.07v0a2.82,2.82,0,0,1-2,2.81L153,10.59h-2.33l-1.94-2.9h-1.57v2.9h-2Zm4,4.4c1,0,1.53-.51,1.53-1.28v0c0-.86-.6-1.3-1.57-1.3h-2v2.6Z"></path><path class="cls-1" d="M154.37,9.27l1.17-1.41A4.15,4.15,0,0,0,158.25,9c.82,0,1.31-.32,1.31-.85v0c0-.5-.31-.76-1.83-1.15-1.82-.47-3-1-3-2.77v0c0-1.64,1.32-2.73,3.17-2.73a5.3,5.3,0,0,1,3.37,1.15l-1,1.51a4.23,4.23,0,0,0-2.35-.9c-.77,0-1.17.35-1.17.79V4c0,.59.39.79,2,1.19,1.83.48,2.87,1.14,2.87,2.72v0c0,1.8-1.37,2.81-3.33,2.81a5.75,5.75,0,0,1-3.84-1.45"></path><rect class="cls-1" x="163.82" y="1.53" width="1.99" height="9.06"></rect><polygon class="cls-1" points="170.64 3.37 167.88 3.37 167.88 1.53 175.39 1.53 175.39 3.37 172.63 3.37 172.63 10.6 170.64 10.6 170.64 3.37"></polygon><polygon class="cls-1" points="179.93 7.02 176.44 1.53 178.77 1.53 180.93 5.17 183.14 1.53 185.4 1.53 181.92 6.98 181.92 10.59 179.93 10.59 179.93 7.02"></polygon><path class="cls-1" d="M191,6.09v0a4.82,4.82,0,0,1,9.64,0v0a4.69,4.69,0,0,1-4.83,4.69A4.64,4.64,0,0,1,191,6.09m7.55,0v0a2.76,2.76,0,0,0-2.74-2.85A2.71,2.71,0,0,0,193.12,6v0a2.75,2.75,0,0,0,2.74,2.85,2.71,2.71,0,0,0,2.72-2.82"></path><polygon class="cls-1" points="202.89 1.53 209.79 1.53 209.79 3.34 204.89 3.34 204.89 5.27 209.21 5.27 209.21 7.09 204.89 7.09 204.89 10.6 202.89 10.6 202.89 1.53"></polygon><path class="cls-1" d="M215.77,6.09v0a4.61,4.61,0,0,1,4.73-4.68,4.69,4.69,0,0,1,3.57,1.39l-1.26,1.47a3.35,3.35,0,0,0-2.32-1A2.69,2.69,0,0,0,217.86,6v0a2.69,2.69,0,0,0,2.63,2.85,3.26,3.26,0,0,0,2.38-1.06l1.27,1.28a4.78,4.78,0,0,1-8.37-3"></path><polygon class="cls-1" points="226.18 1.53 228.18 1.53 228.18 5.12 231.85 5.12 231.85 1.53 233.85 1.53 233.85 10.6 231.85 10.6 231.85 6.96 228.18 6.96 228.18 10.6 226.18 10.6 226.18 1.53"></polygon><rect class="cls-1" x="236.57" y="1.53" width="1.99" height="9.06"></rect><path class="cls-1" d="M240.88,6.09v0a4.6,4.6,0,0,1,4.73-4.68,4.71,4.71,0,0,1,3.57,1.39l-1.27,1.47a3.33,3.33,0,0,0-2.32-1A2.69,2.69,0,0,0,243,6v0a2.69,2.69,0,0,0,2.63,2.85A3.28,3.28,0,0,0,248,7.85l1.26,1.28a4.78,4.78,0,0,1-8.36-3"></path><path class="cls-1" d="M254.4,1.47h1.83l3.89,9.12H258l-.82-2h-3.84l-.83,2h-2Zm2.09,5.33-1.2-2.94L254.08,6.8Z"></path><path class="cls-1" d="M261,6.09v0a4.65,4.65,0,0,1,4.75-4.68,5,5,0,0,1,3.56,1.24L268,4.13a3.35,3.35,0,0,0-2.37-.92A2.73,2.73,0,0,0,263.07,6v0a2.72,2.72,0,0,0,2.74,2.88,3.12,3.12,0,0,0,1.88-.55V7.1h-2V5.38h3.93V9.31a5.87,5.87,0,0,1-3.87,1.44A4.53,4.53,0,0,1,261,6.09"></path><path class="cls-1" d="M271.59,6.09v0a4.68,4.68,0,0,1,4.83-4.68A4.64,4.64,0,0,1,281.22,6v0a4.82,4.82,0,0,1-9.63,0m7.55,0v0a2.76,2.76,0,0,0-2.75-2.85A2.72,2.72,0,0,0,273.67,6v0a2.75,2.75,0,0,0,2.75,2.85,2.71,2.71,0,0,0,2.72-2.82"></path><path class="cls-2" d="M66.72,23h6c4.84,0,8.18,3.32,8.18,7.65v.05c0,4.33-3.34,7.7-8.18,7.7h-6ZM70.11,26v9.29h2.62a4.39,4.39,0,0,0,4.64-4.6v0A4.43,4.43,0,0,0,72.73,26Z"></path><path class="cls-2" d="M88.22,22.88h3.12l6.6,15.51H94.4L93,34.93H86.48l-1.41,3.46H81.61Zm3.56,9.06-2-5-2,5Z"></path><path class="cls-2" d="M102,26.11H97.34V23h12.77v3.12h-4.69V38.39H102Z"></path><path class="cls-2" d="M116.14,22.88h3.12l6.6,15.51h-3.54l-1.41-3.46H114.4L113,38.39h-3.46Zm3.56,9.06-2-5-2,5Z"></path><path class="cls-2" d="M134,36.14l2-2.39a7.1,7.1,0,0,0,4.6,1.87c1.39,0,2.22-.55,2.22-1.46v0c0-.86-.53-1.3-3.1-2-3.1-.79-5.11-1.65-5.11-4.71v0c0-2.8,2.25-4.64,5.4-4.64a9,9,0,0,1,5.72,1.95L144,27.28a7.23,7.23,0,0,0-4-1.52c-1.3,0-2,.59-2,1.34v0c0,1,.66,1.35,3.32,2,3.13.81,4.89,1.93,4.89,4.62v0c0,3.06-2.33,4.78-5.66,4.78A9.8,9.8,0,0,1,134,36.14Z"></path><path class="cls-2" d="M148.17,30.73v0a7.83,7.83,0,0,1,8-8,7.94,7.94,0,0,1,6.07,2.38l-2.16,2.48a5.68,5.68,0,0,0-3.93-1.73,4.56,4.56,0,0,0-4.47,4.79v.05a4.58,4.58,0,0,0,4.47,4.84,5.55,5.55,0,0,0,4-1.81l2.16,2.18a8.12,8.12,0,0,1-14.21-5.17Z"></path><path class="cls-2" d="M165.11,23h3.39v15.4h-3.39Z"></path><path class="cls-2" d="M172.5,23h11.61v3h-8.25v3.12h7.26v3h-7.26v3.23h8.36v3H172.5Z"></path><path class="cls-2" d="M187.3,23h3.13l7.21,9.48V23H201v15.4h-2.88l-7.46-9.79v9.79H187.3Z"></path><path class="cls-2" d="M203.82,30.73v0a7.83,7.83,0,0,1,8-8,7.94,7.94,0,0,1,6.07,2.38l-2.16,2.48a5.72,5.72,0,0,0-3.94-1.73,4.56,4.56,0,0,0-4.46,4.79v.05a4.57,4.57,0,0,0,4.46,4.84,5.57,5.57,0,0,0,4-1.81L218,35.9a7.87,7.87,0,0,1-6.32,2.75A7.78,7.78,0,0,1,203.82,30.73Z"></path><path class="cls-2" d="M220.61,23h11.62v3H224v3.12h7.26v3H224v3.23h8.36v3H220.61Z"></path><path class="cls-2" d="M66.88,45h3.38v15.4H66.88Z"></path><path class="cls-2" d="M74.27,45h3.12l7.22,9.48V45H88v15.4H85.07L77.61,50.6v9.79H74.27Z"></path><path class="cls-2" d="M90.76,58.14l2-2.39a7.08,7.08,0,0,0,4.6,1.87c1.38,0,2.22-.55,2.22-1.46v0c0-.86-.53-1.3-3.1-2-3.11-.79-5.11-1.65-5.11-4.71v0c0-2.8,2.25-4.64,5.39-4.64a8.92,8.92,0,0,1,5.72,1.95l-1.76,2.56a7.17,7.17,0,0,0-4-1.52c-1.3,0-2,.59-2,1.34v0c0,1,.66,1.35,3.32,2,3.12.81,4.88,1.93,4.88,4.62v0c0,3.06-2.33,4.78-5.65,4.78A9.83,9.83,0,0,1,90.76,58.14Z"></path><path class="cls-2" d="M109.27,48.11h-4.69V45h12.76v3.12h-4.68V60.39h-3.39Z"></path><path class="cls-2" d="M119.9,45h3.39v15.4H119.9Z"></path><path class="cls-2" d="M130.5,48.11h-4.68V45h12.76v3.12h-4.69V60.39H130.5Z"></path><path class="cls-2" d="M140.94,53.79V45h3.39V53.7c0,2.51,1.25,3.81,3.32,3.81s3.32-1.26,3.32-3.7V45h3.39v8.69c0,4.66-2.62,7-6.75,7S140.94,58.32,140.94,53.79Z"></path><path class="cls-2" d="M161.41,48.11h-4.69V45h12.77v3.12H164.8V60.39h-3.39Z"></path><path class="cls-2" d="M172,45h11.62v3h-8.25v3.12h7.26v3h-7.26v3.23h8.36v3H172Z"></path><path class="cls-3" d="M15.42,12.91h0l-.69.22h0a.57.57,0,0,1-.36-1.09l.72-.25a.59.59,0,0,1,.74.37.57.57,0,0,1-.37.73ZM16,15.38h0l.79-.24h0A.61.61,0,1,0,16.49,14l-.82.27A.6.6,0,0,0,16,15.38Zm2.67,4.47h0l1-.27h0a.67.67,0,1,0-.37-1.28l-1,.3a.66.66,0,0,0,.35,1.27Zm-1.33-2.24h0l.89-.26h0a.63.63,0,1,0-.37-1.21l-.94.29a.63.63,0,0,0,.37,1.2Zm4,1.61h0l1-.14h0a.69.69,0,0,0-.21-1.36l-1.07.17a.67.67,0,0,0-.57.76A.69.69,0,0,0,21.41,19.22ZM21,16.78h0a.66.66,0,1,0-.23-1.29l-1,.17a.65.65,0,1,0,.22,1.28h0l.91-.15ZM16.43,8.87,15.79,9a.56.56,0,0,0-.42.67.55.55,0,0,0,.67.43h0l.62-.14h0a.58.58,0,0,0-.27-1.12Zm1.46,2.19-.75.17a.59.59,0,1,0,.25,1.16h0l.72-.15h0a.6.6,0,0,0-.26-1.18ZM13.62,9.67,13,9.89a.55.55,0,0,0,.36,1h0l.6-.2h0a.55.55,0,1,0-.36-1Zm4.23-3.54-.55.09a.56.56,0,0,0-.47.63.58.58,0,0,0,.64.48h0L18,7.25h0a.57.57,0,1,0-.17-1.12Zm1.5,7.14-.86.17a.62.62,0,0,0,.24,1.22h0l.81-.16h0a.63.63,0,1,0-.24-1.23Zm4.46,3.28h0a.69.69,0,0,0,.64-.72.69.69,0,0,0-.72-.64l-1,.06a.67.67,0,0,0,.07,1.34h0l.92,0ZM15,6.69l-.54.14a.53.53,0,0,0-.39.65.54.54,0,0,0,.65.4h0l.53-.13h0a.55.55,0,0,0,.39-.67A.54.54,0,0,0,15,6.69Zm11.61,10h0a.7.7,0,0,0,.08-1.4l-1-.06a.69.69,0,0,0-.1,1.38h0l.92.07Zm12.59,2A.77.77,0,0,0,39,17.53L38.24,17a.76.76,0,0,0-1.06.2.77.77,0,0,0,.19,1.08h0l.68.47,0,0h0A.77.77,0,0,0,39.18,18.61Zm-5.5-.12h0l.83.38,0,0h0a.77.77,0,1,0,.62-1.4l-.89-.4a.76.76,0,0,0-.63,1.39Zm1.21,2.76h0l.9.48,0,0h0a.79.79,0,0,0,1.07-.34.8.8,0,0,0-.34-1.08l-1-.49a.79.79,0,0,0-.73,1.4ZM38.08,20a.79.79,0,0,0-.28-1.08L37,18.4a.78.78,0,0,0-.81,1.34l0,0,.78.48h0A.79.79,0,0,0,38.08,20Zm2.72-5.55.39.36h0a.76.76,0,0,0,1-1.13l-.42-.38a.76.76,0,0,0-1,1.12Zm-1.2.16a.76.76,0,0,0,.09,1.07v0l.48.4,0,0h0a.76.76,0,0,0,1.08-.1.77.77,0,0,0-.1-1.08l-.51-.42A.76.76,0,0,0,39.6,14.59Zm.64,2.69a.77.77,0,0,0-.15-1.08l-.62-.46a.76.76,0,0,0-1.06.14A.77.77,0,0,0,38.54,17h0l.57.45h0A.78.78,0,0,0,40.24,17.28Zm-9.16.25h0l.87.28h0a.75.75,0,0,0,.44-1.43l-.94-.28a.73.73,0,1,0-.44,1.4Zm-1.74-.45h0a.72.72,0,1,0,.25-1.42l-1-.17a.71.71,0,1,0-.26,1.4h0l.91.17ZM26.94,19h0l1,.11h0a.73.73,0,1,0,.14-1.46l-1.08-.1A.72.72,0,0,0,26.94,19Zm6.32-2.9h0a.73.73,0,0,0,1-.42.74.74,0,0,0-.42-1L33,14.41a.73.73,0,0,0-.54,1.36h0l.76.31ZM20.78,10.63l-.76.08a.61.61,0,0,0-.54.67.62.62,0,0,0,.67.56h0l.72-.06h0a.62.62,0,1,0-.14-1.23Zm3.39,8.31h0l1,0h0a.71.71,0,0,0,.69-.73.7.7,0,0,0-.73-.68l-1.08,0a.69.69,0,0,0-.68.71A.71.71,0,0,0,24.17,18.94Zm6.47-3.77h0A.72.72,0,0,0,31,13.78l-.84-.22a.71.71,0,0,0-.86.5.69.69,0,0,0,.49.87h0l.8.22Zm-4.05-9L26,6.1a.62.62,0,1,0-.19,1.23h0l.53.08h0a.63.63,0,0,0,.18-1.24Zm8.49,7-.7-.32a.72.72,0,0,0-1,.35.72.72,0,0,0,.35,1h0l.66.31h0a.73.73,0,0,0,.61-1.33Zm1.17,2.29.62.38,0,0h0a.76.76,0,0,0,1-.26.75.75,0,0,0-.27-1l-.66-.4a.75.75,0,0,0-1,.26.73.73,0,0,0,.24,1Zm-1.58.47a.76.76,0,0,0,.31,1h0l.73.39h0a.76.76,0,0,0,.7-1.35l-.78-.4A.75.75,0,0,0,34.67,15.89Zm.11-4.3a.73.73,0,0,0,.28,1h0l.55.3h0a.71.71,0,0,0,1-.3.72.72,0,0,0-.3-1l-.59-.31A.72.72,0,0,0,34.78,11.59Zm2.76-1.44-.48-.28a.71.71,0,0,0-.74,1.22h0l.46.27h0a.72.72,0,0,0,1-.25A.73.73,0,0,0,37.54,10.15ZM35,8.76l-.51-.24a.69.69,0,0,0-.59,1.25h0l.48.23h0a.69.69,0,0,0,.92-.34A.68.68,0,0,0,35,8.76Zm5,3-.45-.33a.74.74,0,0,0-1,.14.73.73,0,0,0,.14,1h0l.42.32h0a.75.75,0,0,0,1-.16A.74.74,0,0,0,40,11.8ZM10.16,8.88a.5.5,0,0,0-.67-.24L9,8.88a.5.5,0,0,0-.24.66.49.49,0,0,0,.66.24h0l.49-.23h0A.5.5,0,0,0,10.16,8.88Zm33.7,5.3a.75.75,0,0,0-.13,1,.77.77,0,0,0-.9.08.76.76,0,0,0-.07,1.09h0a.76.76,0,0,0-1,.05.78.78,0,0,0,0,1.1l0,0,.18.19-.17-.16a.8.8,0,0,0-1.11,0,.79.79,0,0,0,0,1.11l0,0,.52.5,0,0h0a.8.8,0,0,0,1.13,0,.79.79,0,0,0,0-1.12h0a.76.76,0,0,0,1-.07.78.78,0,0,0,0-1.07.79.79,0,0,0,.89-.1.77.77,0,0,0,.08-1,.77.77,0,0,0,.93-1.17.75.75,0,0,0,.76-.09.77.77,0,0,0,.12-1.08l-.21-.27a.76.76,0,0,0-1.24.87A.77.77,0,0,0,43.86,14.18ZM37.27,13a.74.74,0,0,0,.19,1h0l.52.35h0a.75.75,0,1,0,.83-1.24l-.55-.37A.74.74,0,0,0,37.27,13ZM53,35l0,.57a.88.88,0,0,1-.56.66v.24a.89.89,0,0,1-.28.59.92.92,0,0,1,.61.81c0,.22-.07.45-.11.68a.9.9,0,0,1-.49.52l-.05.34a.92.92,0,0,1-.31.54.91.91,0,0,1,.43.78l-.18.75a1,1,0,0,1-.43.4l-.11.42a.89.89,0,0,1-.34.5,1,1,0,0,1,.28.73l-.27.79a1,1,0,0,1-.37.32s0,0,0,.05l-.15.43a1,1,0,0,1-.4.48,1,1,0,0,1,.17.67l-.36.79a.92.92,0,0,1-.31.24.7.7,0,0,1,0,.14l-.19.41a.94.94,0,0,1-.43.43.13.13,0,0,0,0,.06,1,1,0,0,1,0,.57l-.43.77a1.51,1.51,0,0,1-.26.18.86.86,0,0,1-.07.21l-.23.4a1,1,0,0,1-.39.35c0,.05,0,.1,0,.14l0,.07a.86.86,0,0,1,0,.39c-.17.26-.34.51-.52.76a.76.76,0,0,1-.19.12,1.59,1.59,0,0,1-.12.27L46.5,53a.94.94,0,0,1-.36.3.75.75,0,0,1-.1.2l-.12.17-.06.2-.59.72-.15.07a.68.68,0,0,1-.1.21q-.26.3-.51.57a1,1,0,0,1-.19.12.87.87,0,0,1-.15.24l-.25.27-.65.66h0l0,0a32.56,32.56,0,0,1-5.82,4.52l-2.22-3.62.12-.09a2.43,2.43,0,0,1,1.2-.35,1.44,1.44,0,0,0-1.38,0l-.13.06-1.12-1.82.11-.08h0a3.64,3.64,0,0,1,2.33-.48,2.64,2.64,0,0,0-.56-.19l-.09-.05h-.12a2.68,2.68,0,0,0-1.77.36.84.84,0,0,1-.14.06l-1.08-1.76.12-.09a4.82,4.82,0,0,1,3.15-.69h0a1.15,1.15,0,0,1,.17.06h0a3.86,3.86,0,0,0-1.45-.35.75.75,0,0,1-.16,0,.74.74,0,0,1-.14,0h0a4.12,4.12,0,0,0-1.86.57l-.13.07-1.05-1.72.12-.09a6.13,6.13,0,0,1,2.79-.9h0l.24,0a.93.93,0,0,1,.24,0,5.71,5.71,0,0,1,1.3.16l-.22-.11a1.22,1.22,0,0,1-.19-.12.61.61,0,0,1-.19,0h0a5.19,5.19,0,0,0-2-.2,1.46,1.46,0,0,1-.22,0L33,50h0a5.34,5.34,0,0,0-1.86.68L31,50.7,30,49l.12-.08a7.43,7.43,0,0,1,2.54-1,1.51,1.51,0,0,1,.3,0,.77.77,0,0,1,.28-.09,7.52,7.52,0,0,1,2.71.23,7,7,0,0,0-1.33-.46,1.12,1.12,0,0,1-.25-.11,1,1,0,0,1-.25,0h0a6.44,6.44,0,0,0-2,0,.82.82,0,0,1-.27,0,.82.82,0,0,1-.23.11h0a6.3,6.3,0,0,0-1.82.75l-.13.06-1-1.61.12-.09a8.62,8.62,0,0,1,2.33-1,1,1,0,0,1,.35,0,.88.88,0,0,1,.32-.12,8.39,8.39,0,0,1,2.55-.08,1.17,1.17,0,0,1,.33.11,1.29,1.29,0,0,1,.34,0c.37.08.72.19,1.07.3l-.28-.15a.7.7,0,0,1-.26-.19,1,1,0,0,1-.3,0h0a7.94,7.94,0,0,0-1.87-.43.87.87,0,0,1-.31-.1.94.94,0,0,1-.3.06h0a7.77,7.77,0,0,0-1.92.18.86.86,0,0,1-.32,0,1,1,0,0,1-.27.15h0a7.75,7.75,0,0,0-1.77.78.34.34,0,0,1-.12.06l-1-1.56.11-.08a10.2,10.2,0,0,1,2.17-1,1,1,0,0,1,.39,0,1.19,1.19,0,0,1,.36-.17,10,10,0,0,1,2.38-.26.82.82,0,0,1,.38.09,1.07,1.07,0,0,1,.4-.05,9.51,9.51,0,0,1,2.34.51.9.9,0,0,1,.34.2l.19,0-.08,0h0a9.3,9.3,0,0,0-1.71-.74,1,1,0,0,1-.33-.19,1,1,0,0,1-.35,0h0A9.67,9.67,0,0,0,32,42.73a1,1,0,0,1-.37-.08,1,1,0,0,1-.34.09h0a9.53,9.53,0,0,0-1.84.29.82.82,0,0,1-.38,0,.89.89,0,0,1-.31.19h0a9,9,0,0,0-1.7.79l-.12.07L26,42.59l.11-.08a11.72,11.72,0,0,1,2-1,1,1,0,0,1,.46,0,1,1,0,0,1,.38-.24,11.09,11.09,0,0,1,2.22-.38.94.94,0,0,1,.44.09.82.82,0,0,1,.44-.11,10.44,10.44,0,0,1,2.23.25.81.81,0,0,1,.4.21.9.9,0,0,1,.46,0c.34.1.68.23,1,.36l-.35-.21-.15-.09a1.09,1.09,0,0,1-.19-.18,1.07,1.07,0,0,1-.25,0h0l-.16-.05-1.72-.53-.15-.05a.7.7,0,0,1-.24-.13.69.69,0,0,1-.25,0h-.18l-1.79-.09h-.16a1.19,1.19,0,0,1-.27-.07.67.67,0,0,1-.23.1h0l-.16,0-1.77.36-.15,0a.66.66,0,0,1-.28,0,.68.68,0,0,1-.21.17h0l-.14.07-1.62.8-.12.06-.9-1.48.11-.07,1.88-1a.85.85,0,0,1,.49-.08.82.82,0,0,1,.43-.25l2.06-.46a.94.94,0,0,1,.5,0,.86.86,0,0,1,.48-.13l2.11.07a.87.87,0,0,1,.47.17.85.85,0,0,1,.5,0l2,.59a.92.92,0,0,1,.42.28.92.92,0,0,1,.48.11l.21.12a.88.88,0,0,1-.22-.25.92.92,0,0,1-.32-.07h0l-.13-.06-1.55-.73-.13-.06a1,1,0,0,1-.28-.21.91.91,0,0,1-.33,0h0l-.14,0-1.68-.37-.13,0a.81.81,0,0,1-.33-.14,1.14,1.14,0,0,1-.33.08h-.14l-1.73,0h-.13a.71.71,0,0,1-.35-.07.83.83,0,0,1-.31.16h0l-.13,0-1.68.41-.12,0a.88.88,0,0,1-.36,0,1,1,0,0,1-.27.23h0l-.12.06-1.54.78-.11.06h0l-.87-1.42a.41.41,0,0,1,.11-.07l1.75-.92a.76.76,0,0,1,.55-.07.81.81,0,0,1,.46-.32l1.92-.51a.86.86,0,0,1,.55.05.85.85,0,0,1,.51-.2l2-.06a1,1,0,0,1,.53.17.86.86,0,0,1,.55-.08l2,.39a.9.9,0,0,1,.47.28,1,1,0,0,1,.56,0l1.53.69-.94-.58-.1-.06a.86.86,0,0,1-.29-.31.86.86,0,0,1-.42,0h0L35,36.66l-1.54-.55-.11,0a.86.86,0,0,1-.36-.26,1,1,0,0,1-.42.07h-.12l-1.63-.23-.11,0a.78.78,0,0,1-.4-.18.81.81,0,0,1-.41.15h-.12l-1.64.1H28a.85.85,0,0,1-.44-.11.74.74,0,0,1-.36.24h0l-.11,0-1.59.44-.1,0a.8.8,0,0,1-.46,0,.74.74,0,0,1-.31.32h0l-.1,0L23,37.46l-.09,0,0,0-.83-1.38.11-.07,1.63-.88a.87.87,0,0,1,.61-.07.84.84,0,0,1,.48-.38l1.79-.53a.82.82,0,0,1,.6.06.83.83,0,0,1,.56-.27l1.86-.15a.85.85,0,0,1,.58.17.93.93,0,0,1,.59-.15l1.86.24a.83.83,0,0,1,.53.29.88.88,0,0,1,.62,0l1.76.61a.91.91,0,0,1,.47.39.88.88,0,0,1,.61.11l.56.33-.23-.17L37,35.58a.87.87,0,0,1-.29-.42.86.86,0,0,1-.5-.07h0l-.1-.05-1.39-.68-.09,0a.83.83,0,0,1-.37-.37.78.78,0,0,1-.5,0h0l-.1,0-1.5-.41-.09,0a.85.85,0,0,1-.44-.3.83.83,0,0,1-.49.14H31l-1.55-.13h-.09a.79.79,0,0,1-.49-.22.78.78,0,0,1-.46.23h0l-.09,0-1.56.16h-.09a.78.78,0,0,1-.52-.13.8.8,0,0,1-.42.32h0l-.09,0-1.49.47-.09,0a.77.77,0,0,1-.54,0,.81.81,0,0,1-.34.41h0l-.08,0-1.39.74-.07,0-.05,0L20.78,34l.1-.08,1.53-.83a.78.78,0,0,1,.68,0,.78.78,0,0,1,.49-.48L25.24,32a.78.78,0,0,1,.67.09.83.83,0,0,1,.58-.37l1.73-.21a.84.84,0,0,1,.65.2.84.84,0,0,1,.63-.24l1.74.12a.82.82,0,0,1,.6.3.87.87,0,0,1,.67-.1l1.69.44a.87.87,0,0,1,.53.4.87.87,0,0,1,.67,0l1.59.74a.93.93,0,0,1,.45.49.93.93,0,0,1,.6.15,1,1,0,0,1-.18-.4.88.88,0,0,1-.57-.1h0l-.08,0L36,32.77l-.07-.05a.86.86,0,0,1-.37-.47.89.89,0,0,1-.58,0h0l-.08,0-1.37-.54-.07,0a.83.83,0,0,1-.45-.41.88.88,0,0,1-.58.1h0l-.08,0L30.85,31l-.08,0a.8.8,0,0,1-.51-.34.79.79,0,0,1-.56.21h-.09l-1.47,0h-.08a.79.79,0,0,1-.57-.25.78.78,0,0,1-.51.31h-.09l-1.46.21h-.08a.8.8,0,0,1-.6-.16.79.79,0,0,1-.45.41h0l-.07,0-1.41.46-.07,0a.79.79,0,0,1-.64-.08.72.72,0,0,1-.36.51h0l-.07,0-1.3.7-.06,0-.06,0-.77-1.27.1-.07L21,31a.79.79,0,0,1,.76,0,.74.74,0,0,1,.49-.58l1.54-.54a.78.78,0,0,1,.74.14.79.79,0,0,1,.59-.47l1.61-.26a.78.78,0,0,1,.71.25.79.79,0,0,1,.66-.35l1.64,0a.81.81,0,0,1,.65.36.82.82,0,0,1,.72-.22l1.6.3a.87.87,0,0,1,.59.46A.84.84,0,0,1,34,30l1.53.58a.85.85,0,0,1,.5.53.88.88,0,0,1,.74.07l1.12.66-.76-.56-.06,0a.88.88,0,0,1-.35-.58.89.89,0,0,1-.66,0h0l-.07,0L34.78,30l-.06,0a.83.83,0,0,1-.43-.54.83.83,0,0,1-.67.09h0l-.07,0-1.32-.42-.06,0a.8.8,0,0,1-.51-.49.84.84,0,0,1-.66.22h-.08l-1.37-.21h-.07a.82.82,0,0,1-.58-.42.81.81,0,0,1-.62.34h-.08l-1.38,0h-.07a.8.8,0,0,1-.65-.35.76.76,0,0,1-.55.46h0l-.07,0-1.37.24H24a.73.73,0,0,1-.7-.26.78.78,0,0,1-.47.57h0l-.06,0-1.32.47,0,0a.75.75,0,0,1-.76-.17.69.69,0,0,1-.36.66h0l-.05,0L19,30.87l-.06,0-.06,0-.74-1.23.1-.07,1.31-.75a.74.74,0,0,1,.86.11.75.75,0,0,1,.48-.73l1.42-.52a.74.74,0,0,1,.81.19.78.78,0,0,1,.61-.59l1.49-.29a.76.76,0,0,1,.77.31.81.81,0,0,1,.7-.47l1.52-.05a.82.82,0,0,1,.71.42.8.8,0,0,1,.76-.34l1.51.2a.82.82,0,0,1,.64.51.86.86,0,0,1,.8-.2l1.46.44a.83.83,0,0,1,.55.6.83.83,0,0,1,.82,0l1.37.66a.88.88,0,0,1,.47.67.87.87,0,0,1,.81.09l.27.2L38.3,30l0,0a.86.86,0,0,1-.29-.73.84.84,0,0,1-.77,0h0l-.06,0L36,28.43l-.05,0a.86.86,0,0,1-.39-.7.83.83,0,0,1-.78.09h0l-.06,0-1.19-.51-.06,0a.81.81,0,0,1-.48-.65.83.83,0,0,1-.77.23h0l-.06,0-1.26-.32h-.05a.8.8,0,0,1-.58-.6.8.8,0,0,1-.73.37h-.06l-1.29-.13h-.06a.75.75,0,0,1-.66-.53.77.77,0,0,1-.67.5h-.07l-1.29.07h-.06a.74.74,0,0,1-.74-.49.74.74,0,0,1-.57.66H24l-1.28.27H22.7a.74.74,0,0,1-.84-.48.74.74,0,0,1-.44.85h0l-.05,0-1.22.45-.05,0a.72.72,0,1,1-.51-1.34l1.31-.51a.73.73,0,0,1,.94.41.74.74,0,0,1,.56-.87l1.38-.31a.76.76,0,0,1,.86.49.75.75,0,0,1,.69-.71l1.41-.09a.77.77,0,0,1,.78.55.78.78,0,0,1,.79-.54l1.41.12a.78.78,0,0,1,.69.61.81.81,0,0,1,.86-.36l1.37.33a.83.83,0,0,1,.62.65.83.83,0,0,1,.89-.17l1.3.53A.83.83,0,0,1,36,27a.84.84,0,0,1,.9,0l1.21.72a.84.84,0,0,1,.41.79.87.87,0,0,1,.8.07.85.85,0,0,1-.15-.75.88.88,0,0,1-.87-.05h0l0,0-1-.7,0,0a.83.83,0,0,1-.33-.84.84.84,0,0,1-.89.09h0l0,0-1.07-.55,0,0a.8.8,0,0,1-.43-.85.78.78,0,0,1-.89.28h0l0,0-1.13-.4h0a.81.81,0,0,1-.5-.95.77.77,0,0,1-.89.56H30.8L29.62,24h0A.78.78,0,0,1,29,23a.77.77,0,0,1,.9-.61l1.28.23a.79.79,0,0,1,.63.89.8.8,0,0,1,1-.47l1.23.42a.79.79,0,0,1,.53.9.81.81,0,0,1,1-.26l1.17.58a.83.83,0,0,1,.42.93.83.83,0,0,1,1-.07l1.07.74a.86.86,0,0,1,.33.93.85.85,0,0,1,.73,0,.86.86,0,0,1,.09-.92.84.84,0,0,1-1.09.06h0l0,0-.85-.7,0,0a.83.83,0,0,1-.12-1.17.84.84,0,0,1,1.17-.13l.36.29-.26-.25,0,0a.84.84,0,0,1,0-1.18.83.83,0,0,1,1.1-.09.81.81,0,0,1,1-1.25.8.8,0,0,1,1-1.19.8.8,0,0,1,.19-1,.81.81,0,0,1,.79-.13.8.8,0,0,1,.23-1,.78.78,0,0,1,.72-.11.8.8,0,0,1,.26-1,.8.8,0,0,1,.67-.11.78.78,0,0,1,.28-.94.77.77,0,0,1,.62-.11.78.78,0,0,1,.3-.93.8.8,0,0,1,1.08.23l.19.3A.78.78,0,0,1,47.61,17a.8.8,0,0,1-.56.11.78.78,0,0,1-.85,1.12.79.79,0,0,1-.23,1,.76.76,0,0,1-.65.13.78.78,0,0,1-.9,1.13.79.79,0,0,1-.93,1.15.8.8,0,0,1-1,1.17.83.83,0,0,1-1,1.21.82.82,0,0,1-1.1,1.16.84.84,0,0,1,.08,1,.83.83,0,0,1,.8-.15.85.85,0,0,1,.22-1,.83.83,0,0,1,.77-.16.82.82,0,0,1,1-1.1.82.82,0,0,1,.93-1.07.82.82,0,0,1,.91-1,.81.81,0,0,1,.35-.9.84.84,0,0,1,.53-.11.79.79,0,0,1,.37-.9.74.74,0,0,1,.5-.1.79.79,0,0,1,.38-.9.73.73,0,0,1,.46-.08.78.78,0,0,1,.39-.91.8.8,0,0,1,1.08.33l.16.31A.81.81,0,0,1,49,19.5a.74.74,0,0,1-.41.08.79.79,0,0,1-.34,1,.76.76,0,0,1-.44.09.81.81,0,0,1-.33,1,.79.79,0,0,1-.47.1.81.81,0,0,1-.31,1,.78.78,0,0,1-.51.12.82.82,0,0,1-.3,1,.85.85,0,0,1-.54.13.83.83,0,0,1-.28,1,.81.81,0,0,1-.58.15.86.86,0,0,1-.25,1,.94.94,0,0,1-.64.18.84.84,0,0,1-.23,1,.86.86,0,0,1-.7.19.85.85,0,0,1-.11.84.85.85,0,0,1,.46-.09.88.88,0,0,1,.38-.91.9.9,0,0,1,.53-.12.86.86,0,0,1,.4-.91.83.83,0,0,1,.48-.11.83.83,0,0,1,.86-1,.86.86,0,0,1,.43-.9,1,1,0,0,1,.41-.08A.81.81,0,0,1,47,23.2a.8.8,0,0,1,.37-.08.83.83,0,0,1,.45-.89.71.71,0,0,1,.34-.08.82.82,0,0,1,.47-.88.73.73,0,0,1,.31-.07.81.81,0,0,1,.48-.89.83.83,0,0,1,1.07.44l.13.32a.83.83,0,0,1-.43,1.08,1.28,1.28,0,0,1-.27.05.81.81,0,0,1-.44,1,.67.67,0,0,1-.28.06.83.83,0,0,1-.43,1,.67.67,0,0,1-.31.07.83.83,0,0,1-.41,1,.69.69,0,0,1-.34.09.83.83,0,0,1-.41,1,.75.75,0,0,1-.36.1.86.86,0,0,1-.38,1,.82.82,0,0,1-.4.1.86.86,0,0,1-.37,1,.82.82,0,0,1-.43.12.87.87,0,0,1-.35,1,.84.84,0,0,1-.48.14.81.81,0,0,1,0,.38.87.87,0,0,1,.45-.51.82.82,0,0,1,.34-.09.87.87,0,0,1,.5-.89,1.09,1.09,0,0,1,.3-.07.88.88,0,0,1,.52-.89,1.28,1.28,0,0,1,.27-.05.85.85,0,0,1,.52-.9,1,1,0,0,1,.24,0,.86.86,0,0,1,.55-.89,1.33,1.33,0,0,1,.21,0,.84.84,0,0,1,.55-.91.55.55,0,0,1,.18,0,.83.83,0,0,1,.56-.91,1,1,0,0,1,.17,0,.82.82,0,0,1,.56-.91.83.83,0,0,1,1,.54l.11.34A.83.83,0,0,1,51,24.89h-.13a.83.83,0,0,1-.54,1,.59.59,0,0,1-.14,0,.85.85,0,0,1-.52,1,1,1,0,0,1-.16,0A.86.86,0,0,1,49,28l-.18,0a.85.85,0,0,1-.5,1,.79.79,0,0,1-.2,0,1,1,0,0,1,0,.46.76.76,0,0,1,.32-.17h.08a.86.86,0,0,1,.63-.9h.06a.85.85,0,0,1,.64-.92h.05a.83.83,0,0,1,.65-.91h0a.84.84,0,0,1,1.66-.27l.08.35a.86.86,0,0,1-.64,1h0a.86.86,0,0,1-.64,1,.86.86,0,0,1-.63,1h0a.83.83,0,0,1-.1.62l.11,0a.85.85,0,0,1,.64-.91.86.86,0,0,1,.75-1,.87.87,0,0,1,1,.75l0,.35a.85.85,0,0,1-.62.92v.09a.83.83,0,0,1-.32.78.93.93,0,0,1,.24-.05.88.88,0,0,1,.9.84v.35a.86.86,0,0,1-.6.85v.17a.87.87,0,0,1-.25.64A.9.9,0,0,1,53,35ZM36.2,48.25l-.1,0,.07,0Zm.5-4.18-.05,0-.09,0h0A.6.6,0,0,0,36.7,44.07ZM8.08,7.58h0l.4-.19h0a.48.48,0,0,0,.22-.64.49.49,0,0,0-.64-.22l-.4.2a.47.47,0,0,0,.41.85ZM9.34,4.26l.31-.12h0a.47.47,0,0,0,.27-.61.45.45,0,0,0-.6-.26L9,3.39a.47.47,0,1,0,.34.87Zm22.82,6.22a.7.7,0,0,0,.37.91h0l.58.24h0a.71.71,0,0,0,.91-.39.7.7,0,0,0-.39-.91l-.62-.25A.7.7,0,0,0,32.16,10.48ZM23.68,5.87l-.56,0a.6.6,0,0,0-.63.57.61.61,0,0,0,.57.64h0l.54,0h0a.6.6,0,0,0,.63-.58A.61.61,0,0,0,23.68,5.87Zm3.73,2.68a.66.66,0,0,0-.24,1.29h0l.62.12h0a.67.67,0,0,0,.77-.54.66.66,0,0,0-.54-.76Zm2.05-1.79-.54-.13a.65.65,0,1,0-.32,1.25h0l.52.13h0a.65.65,0,0,0,.31-1.27Zm1.73,6.35.69.24h0A.71.71,0,0,0,32.35,12l-.72-.24a.71.71,0,0,0-.89.44.7.7,0,0,0,.43.89Zm-2.71-.74h0l.71.17h0a.69.69,0,1,0,.29-1.34L28.78,11a.68.68,0,0,0-.3,1.33Zm13.38.84h0l.31.3h0a.75.75,0,0,0,1.05-1.08l-.32-.32a.76.76,0,0,0-1.06,0A.75.75,0,0,0,41.86,13.21Zm-20.29-5a.61.61,0,0,0-.59.62.62.62,0,0,0,.62.6h.67a.61.61,0,0,0,.6-.63.62.62,0,0,0-.64-.6Zm2.93,0a.63.63,0,0,0-.67.57.62.62,0,0,0,.57.69h0l.63.06h0a.64.64,0,0,0,.09-1.27Zm2,5.39a.69.69,0,0,0,.57.79h0l.82.13h0a.69.69,0,1,0,.19-1.37L27.26,13A.67.67,0,0,0,26.49,13.61Zm3-4a.69.69,0,0,0,.46.84h0l.6.18h0a.67.67,0,0,0,.84-.46.69.69,0,0,0-.47-.85l-.63-.18A.68.68,0,0,0,29.44,9.64Zm2.82-2-.53-.19a.67.67,0,0,0-.46,1.26h0l.5.19h0a.67.67,0,1,0,.45-1.26ZM26.64,10.7l-.76-.09a.67.67,0,0,0-.73.58.68.68,0,0,0,.58.74h0l.72.09h0a.67.67,0,0,0,.73-.59A.66.66,0,0,0,26.64,10.7Zm-2.93-.2h-.77a.63.63,0,0,0-.63.63.63.63,0,0,0,.63.65h.77a.65.65,0,0,0,0-1.29Zm-.07,3a.68.68,0,0,0,.64.7h0l.83,0h0a.68.68,0,0,0,.69-.66.67.67,0,0,0-.65-.69l-.87,0A.67.67,0,0,0,23.64,13.47ZM21.39,13a.64.64,0,0,0-.58.69.65.65,0,0,0,.68.6h0l.82-.05h0a.65.65,0,0,0-.11-1.29Zm-2.08-4.6-.65.09a.59.59,0,0,0-.51.65.61.61,0,0,0,.66.52h0l.63-.07h0A.59.59,0,0,0,20,8.88.6.6,0,0,0,19.31,8.37ZM33.59,22.86h0l1,.45,0,0h0a.8.8,0,1,0,.63-1.47l-1.1-.47a.79.79,0,0,0-1,.41A.79.79,0,0,0,33.59,22.86Zm-.23-2.3h0a.78.78,0,0,0,.53-1.46l-1-.37a.77.77,0,0,0-.53,1.44h0l.95.36ZM31,22h0l1.06.31,0,0h0a.78.78,0,0,0,.42-1.51L31.4,20.5A.77.77,0,1,0,31,22Zm10.4-1.5a.8.8,0,0,0-.09-1.13l-.66-.57A.8.8,0,0,0,39.58,20l0,0,.62.54,0,0h0A.8.8,0,0,0,41.38,20.48Zm-5.31,3.59,0,0,.95.58,0,0h0a.83.83,0,0,0,1.13-.29.82.82,0,0,0-.28-1.13l-1-.61a.82.82,0,0,0-.84,1.4Zm-5.33-4.4h0a.77.77,0,0,0,.9-.57.76.76,0,0,0-.57-.9L30,18a.74.74,0,0,0-.34,1.45h0l1,.23Zm8.57,3.38a.81.81,0,0,0-.21-1.13l-.9-.62a.82.82,0,0,0-1.12.21.8.8,0,0,0,.2,1.12l0,0,.83.59,0,0h0A.82.82,0,0,0,39.31,23.05Zm1.06-1.3a.82.82,0,0,0-.15-1.14l-.78-.6a.81.81,0,0,0-1,1.27l0,0,.72.57,0,0h0A.82.82,0,0,0,40.37,21.75Zm-19,2.59h0l1.18-.28h.05a.72.72,0,1,0-.34-1.4L21,23a.7.7,0,0,0-.52.85A.72.72,0,0,0,21.37,24.34Zm2.56-3h0A.71.71,0,0,0,23.75,20l-1.17.15a.71.71,0,0,0,.17,1.4h0l1.1-.13Zm5.52.26h0a.76.76,0,1,0,.21-1.5L28.48,20a.75.75,0,0,0-.22,1.48h0l1.1.16Zm-8.26.16h0a.69.69,0,1,0-.36-1.34l-1.15.31A.69.69,0,0,0,20,22.09h0l1.08-.27Zm2.89,2h.05l1.2-.1h.05a.74.74,0,0,0-.14-1.48l-1.3.13a.74.74,0,0,0,.14,1.47Zm2.75-.13h.05l1.2.07h.06a.77.77,0,0,0,.07-1.53l-1.3-.05a.76.76,0,0,0-.79.71A.77.77,0,0,0,26.83,23.69Zm-.13-2.37h0a.74.74,0,1,0,0-1.47H25.52a.74.74,0,0,0-.73.72.73.73,0,0,0,.71.74h0l1.12,0Zm-15-4.05h0a.57.57,0,1,0-.59-1l-.74.45-.09.06.57.94.09,0h0l.72-.42Zm1.43,2.15h0a.59.59,0,1,0-.61-1l-.84.49L11.6,19l.6,1,.09,0h0l.8-.46Zm5.63,5.82,0,0,1.13-.44H20a.7.7,0,0,0,.38-.91.69.69,0,0,0-.91-.38l-1.2.48a.69.69,0,0,0,.51,1.29Zm-4.2-3.67h0a.62.62,0,1,0-.63-1.07L13,21l-.1.07.63,1a.2.2,0,0,0,.08,0h0l.88-.51Zm2.87,4.29h0a.68.68,0,1,0-.68-1.17l-1.12.65-.09.07.68,1.12.08,0,0,0,1.06-.59ZM16,23.71h0a.65.65,0,1,0-.66-1.12l-1,.6-.1.07.66,1.07.08,0,0,0,1-.55ZM18.86,28h0a.71.71,0,1,0-.71-1.22L17,27.48l-.1.07.71,1.18.07,0,0,0L18.81,28Zm24-16,.23.24h0a.75.75,0,0,0,1.06,0,.73.73,0,0,0,0-1.05L44,11a.74.74,0,0,0-1.08,1ZM10.46,14.39a.54.54,0,0,0-.74-.19l-.65.4L9,14.67l.54.88.09,0h0l.64-.37h0A.53.53,0,0,0,10.46,14.39ZM9,12.28a.51.51,0,0,0-.7-.17l-.56.34a.22.22,0,0,0-.09.07l.51.84.09,0h0L8.83,13h0A.52.52,0,0,0,9,12.28ZM4.11,5.82,3.82,6a.24.24,0,0,0-.08.06l.42.7.1,0,.29-.18h0a.43.43,0,1,0-.45-.73ZM20.37,2.26h.35a.54.54,0,0,0,.55-.55.55.55,0,0,0-.55-.55h-.35a.55.55,0,0,0-.54.55A.54.54,0,0,0,20.37,2.26ZM6.74,5.38l.31-.15h0a.45.45,0,0,0-.4-.8l-.31.15a.45.45,0,0,0-.2.6A.44.44,0,0,0,6.74,5.38ZM6.92,10l-.48.29a.27.27,0,0,0-.08.07l.48.79.09,0h0l.46-.27h0a.48.48,0,0,0-.5-.82ZM5.51,7.92l-.38.23-.08.07L5.5,9l.09,0h0L6,8.7H6a.45.45,0,1,0-.48-.77ZM17.43,23h0l1-.42h.05a.68.68,0,0,0,.36-.88.67.67,0,0,0-.88-.36l-1.1.46A.66.66,0,1,0,17.43,23ZM26.82,4.58a.61.61,0,0,0,.46.74h0l.43.1h0A.62.62,0,0,0,28,4.2l-.44-.09A.62.62,0,0,0,26.82,4.58Zm1.87-1.16h0l.32.1h0a.62.62,0,1,0,.32-1.19L29,2.24a.61.61,0,0,0-.33,1.18Zm.89,1.81A.65.65,0,0,0,30,6h0l.42.13h0a.65.65,0,0,0,.81-.43A.64.64,0,0,0,30.82,5l-.44-.13A.65.65,0,0,0,29.58,5.23ZM24,4.18a.6.6,0,0,0,.52.67h0l.43,0h0a.6.6,0,1,0,.13-1.19l-.45-.05A.59.59,0,0,0,24,4.18ZM23.18,2.4h0l.33,0h0a.58.58,0,0,0,.62-.52.57.57,0,0,0-.53-.62l-.34,0a.57.57,0,1,0-.1,1.14ZM26,2.78h0l.33.06h0a.59.59,0,1,0,.21-1.17l-.35-.06A.59.59,0,0,0,26,2.78Zm5.4,1.52h0l.31.12h0a.64.64,0,0,0,.45-1.2l-.33-.12a.64.64,0,0,0-.45,1.19Zm3.52,3a.68.68,0,0,0,.26.93h0l.38.21h0a.69.69,0,0,0,.65-1.21L35.8,7A.68.68,0,0,0,34.88,7.3Zm-2.6-1.16a.67.67,0,0,0,.34.88h0l.4.17h0A.67.67,0,1,0,33.56,6l-.42-.17A.66.66,0,0,0,32.28,6.14Zm7.51,5.2h0l.34.27h0a.74.74,0,0,0,1-.11.73.73,0,0,0-.11-1l-.35-.29a.74.74,0,0,0-1,.11A.72.72,0,0,0,39.79,11.34ZM37.35,8.69a.7.7,0,0,0,.19,1h0l.36.25h0a.71.71,0,1,0,.79-1.19l-.38-.25A.72.72,0,0,0,37.35,8.69Zm1.37-.37h0l.27.2h0a.7.7,0,0,0,.82-1.14l-.28-.2a.7.7,0,0,0-.83,1.13Zm-4.79-2.9h0l.3.15h0a.65.65,0,0,0,.87-.31.66.66,0,0,0-.31-.88l-.31-.15a.66.66,0,0,0-.87.3A.66.66,0,0,0,33.93,5.42ZM21.71,4.65h0l.44,0h0a.59.59,0,0,0,.59-.57.6.6,0,0,0-.57-.6h-.46a.57.57,0,0,0-.58.55A.58.58,0,0,0,21.71,4.65ZM36.39,6.76h0l.29.18h0a.69.69,0,0,0,.7-1.18l-.31-.17a.68.68,0,0,0-.7,1.16Zm4.51,3.32.25.23h0a.73.73,0,0,0,1-.07.72.72,0,0,0-.06-1L41.85,9a.72.72,0,0,0-1,1.08ZM12.09,14.19h0l.67-.3h0a.56.56,0,1,0-.47-1l-.69.32a.55.55,0,0,0-.27.72A.55.55,0,0,0,12.09,14.19ZM10.75,12h0l.58-.26h0a.53.53,0,0,0-.46-1l-.59.29a.52.52,0,0,0,.44,1ZM12,3.38l.33-.09h0a.49.49,0,0,0,.34-.6.5.5,0,0,0-.61-.34l-.34.1a.49.49,0,0,0-.33.6A.47.47,0,0,0,12,3.38Zm-1.35,3.1h0l.41-.15h0a.49.49,0,0,0,.29-.64.49.49,0,0,0-.64-.28l-.42.16a.49.49,0,0,0-.29.62A.49.49,0,0,0,10.67,6.48Zm5.42,14.33h0l.94-.39h0a.64.64,0,0,0,.33-.85.63.63,0,0,0-.84-.33l-1,.43a.63.63,0,1,0,.49,1.16ZM14.76,18.6h0l.85-.37h0a.61.61,0,1,0-.5-1.12l-.89.39a.62.62,0,0,0-.31.8A.61.61,0,0,0,14.76,18.6Zm6-12.74-.55,0a.58.58,0,1,0,.05,1.16h0l.53,0h0a.6.6,0,0,0,.56-.62A.59.59,0,0,0,20.76,5.86ZM13.42,16.4h0l.76-.33h0A.59.59,0,0,0,13.74,15l-.79.36a.58.58,0,0,0,.47,1.06Zm4.14-14h0l.33,0h0a.53.53,0,0,0,.48-.58.54.54,0,0,0-.58-.48l-.35,0A.52.52,0,0,0,17,1.9.53.53,0,0,0,17.56,2.38ZM15.5,4.59a.55.55,0,0,0,.61.45h0L16.55,5h0A.55.55,0,0,0,17,4.34a.53.53,0,0,0-.62-.43L15.94,4A.54.54,0,0,0,15.5,4.59ZM12.18,7.53l-.52.19a.53.53,0,0,0-.31.66A.52.52,0,0,0,12,8.7h0l.51-.18h0a.52.52,0,1,0-.36-1Zm6.73-2.82h0l.43,0h0a.56.56,0,0,0,.51-.6.55.55,0,0,0-.6-.51l-.45,0a.56.56,0,0,0-.51.59A.55.55,0,0,0,18.91,4.71Zm-5.55.92h0l.43-.11h0a.52.52,0,0,0,.36-.63.51.51,0,0,0-.63-.36l-.45.12a.51.51,0,0,0-.36.62A.52.52,0,0,0,13.36,5.63Zm1.41-2.88.33,0h0a.5.5,0,0,0,.4-.59.51.51,0,0,0-.59-.41l-.35.07a.51.51,0,0,0-.4.59A.5.5,0,0,0,14.77,2.75Z"></path></g></svg> 